<svg xmlns="http://www.w3.org/2000/svg" viewBox="0 0 216.43 61.07"><defs><style>.cls-1{fill:#0069d9;}.cls-2{fill:#1a1a1a;}.cls-3,.cls-4,.cls-5,.cls-6{fill:none;stroke-miterlimit:10;}.cls-3,.cls-5,.cls-6{stroke:#999;}.cls-3,.cls-4{stroke-width:4px;}.cls-4{stroke:#0069d9;}.cls-5,.cls-6{stroke-width:2px;}.cls-6{stroke-dasharray:7.47 7.47 6.11 7.47;}</style></defs><g id="Réteg_2" data-name="Réteg 2"><g id="Réteg_1" data-name="Réteg 1"><path class="cls-1" d="M68.69,21.4h7.62c4.54,0,8.44,1.67,8.44,6.92,0,5.08-4,7.29-8.32,7.29H74.19V42.2h-5.5Zm7.49,9.86c2.17,0,3.2-1.09,3.2-2.94s-1.22-2.56-3.33-2.56H74.19v5.5Z"/><path class="cls-1" d="M90.85,21.4H97.5l6.34,20.8H98L95.65,32.09c-.51-2-1-4.51-1.54-6.59H94c-.45,2.11-1,4.61-1.48,6.59L90.15,42.2H84.51ZM89.06,33.53H99.23v4.26H89.06Z"/><path class="cls-1" d="M106.45,21.4h7.87c4.48,0,8.32,1.54,8.32,6.72s-3.84,7.11-8.32,7.11H112v7h-5.51Zm7.49,9.48c2.18,0,3.33-1,3.33-2.76s-1.15-2.36-3.33-2.36h-2v5.12Zm-.61,2.91L117,30.14,123.8,42.2h-6.15Z"/><path class="cls-1" d="M130.6,26h-5.51V21.4H141.6V26h-5.5V42.2h-5.5Z"/><path class="cls-1" d="M145.05,21.4h5.51V42.2h-5.51Z"/><path class="cls-2" d="M155.58,21.4h5.89l3.13,8.52c.39,1.15.71,2.43,1.09,3.64h.13c.38-1.21.7-2.49,1.09-3.64l3-8.52h5.89V42.2h-5V36.06a73.61,73.61,0,0,1,.7-7.42h-.13l-1.72,5-2.56,6.88h-2.95l-2.56-6.88-1.66-5h-.13a70.82,70.82,0,0,1,.71,7.42V42.2h-4.93Z"/><path class="cls-2" d="M184.76,21.4h6.66l6.34,20.8h-5.83l-2.37-10.11c-.51-2-1-4.51-1.53-6.59h-.13c-.45,2.11-1,4.61-1.47,6.59L184.06,42.2h-5.63ZM183,33.53h10.18v4.26H183Z"/><path class="cls-2" d="M200.37,21.4H208c4.55,0,8.45,1.67,8.45,6.92,0,5.08-4,7.29-8.32,7.29h-2.24V42.2h-5.5Zm7.49,9.86c2.17,0,3.2-1.09,3.2-2.94s-1.22-2.56-3.33-2.56h-1.86v5.5Z"/><rect class="cls-3" x="2.13" y="12.13" width="46.81" height="46.81" transform="translate(-0.18 0.13) rotate(-0.28)"/><polyline class="cls-4" points="33.79 27.43 33.79 2.2 60.2 2.01 60.39 40.13 50.99 40.2"/><polygon class="cls-1" points="44.26 18.95 42.38 17.21 33.79 26.45 25.2 17.21 23.32 18.95 33.79 30.21 44.26 18.95"/><line class="cls-5" x1="11.5" y1="12.72" x2="11.5" y2="18.22"/><line class="cls-6" x1="11.5" y1="24.33" x2="11.5" y2="49.12"/><line class="cls-5" x1="11.5" y1="52.85" x2="11.5" y2="58.35"/><line class="cls-5" x1="2.72" y1="48.99" x2="8.22" y2="48.99"/><line class="cls-6" x1="14.33" y1="48.99" x2="39.11" y2="48.99"/><line class="cls-5" x1="42.85" y1="48.99" x2="48.35" y2="48.99"/></g></g></svg>