<?xml version="1.0" encoding="UTF-8" standalone="no"?>
<!-- Created with Inkscape (http://www.inkscape.org/) -->

<svg
   version="1.1"
   id="svg2"
   xml:space="preserve"
   width="388.16"
   height="298.95999"
   viewBox="0 0 388.16 298.95999"
   sodipodi:docname="Prague_EN_CMYK_3Z.eps"
   xmlns:inkscape="http://www.inkscape.org/namespaces/inkscape"
   xmlns:sodipodi="http://sodipodi.sourceforge.net/DTD/sodipodi-0.dtd"
   xmlns="http://www.w3.org/2000/svg"
   xmlns:svg="http://www.w3.org/2000/svg"><defs
     id="defs6" /><sodipodi:namedview
     id="namedview4"
     pagecolor="#ffffff"
     bordercolor="#666666"
     borderopacity="1.0"
     inkscape:pageshadow="2"
     inkscape:pageopacity="0.0"
     inkscape:pagecheckerboard="0" /><g
     id="g8"
     inkscape:groupmode="layer"
     inkscape:label="ink_ext_XXXXXX"
     transform="matrix(1.3333333,0,0,-1.3333333,0,298.96)"><g
       id="g10"
       transform="scale(0.1)"><path
         d="M 1071.5,557.16 V 399.328 h 34.97 v 58.731 h 4.75 c 10.8,0 20.19,0.429 28.18,1.3 7.99,0.86 14.79,2.871 20.4,6.039 7.19,4.032 12.66,9.641 16.41,16.84 3.74,7.203 5.61,15.692 5.61,25.481 0,9.781 -1.87,18.242 -5.61,25.371 -3.75,7.121 -9.22,12.699 -16.41,16.73 -5.76,3.309 -12.6,5.36 -20.51,6.149 -7.92,0.793 -17.27,1.191 -28.07,1.191 z m 34.97,-26.769 h 9.72 c 5.47,0 10.15,-0.36 14.03,-1.082 3.89,-0.719 7.02,-1.95 9.39,-3.668 2.38,-1.731 4.1,-4.071 5.18,-7.02 1.08,-2.949 1.62,-6.66 1.62,-11.121 0,-8.93 -2.3,-14.93 -6.9,-18.031 -4.61,-3.09 -12.39,-4.641 -23.32,-4.641 h -9.72 z m 102.99,26.769 V 399.328 h 34.97 v 64.344 h 11.66 l 30.66,-64.344 h 39.08 l -34.55,68.453 c 9.5,3.297 16.7,8.59 21.59,15.86 4.89,7.269 7.34,16.23 7.34,26.879 0,9.21 -1.87,17.242 -5.61,24.082 -3.75,6.828 -9.21,12.117 -16.41,15.867 -5.76,3.019 -12.63,4.89 -20.62,5.609 -7.99,0.723 -17.31,1.082 -27.96,1.082 z m 34.97,-26.769 h 9.72 c 5.32,0 9.89,-0.262 13.71,-0.762 3.81,-0.508 6.98,-1.508 9.5,-3.02 2.51,-1.507 4.38,-3.64 5.61,-6.371 1.22,-2.738 1.84,-6.34 1.84,-10.797 0,-4.461 -0.62,-8.019 -1.84,-10.679 -1.23,-2.672 -3.1,-4.75 -5.61,-6.262 -2.52,-1.52 -5.69,-2.52 -9.5,-3.031 -3.82,-0.5 -8.39,-0.75 -13.71,-0.75 h -9.72 z m 189.13,-131.063 h 33.9 l -45.34,157.832 h -41.24 l -45.34,-157.832 h 33.9 l 8.2,31.531 h 47.5 z m -49.01,58.512 17.06,71.25 16.84,-71.25 z m 108.38,6.48 c 0,-6.039 0.11,-11.66 0.32,-16.84 0.22,-5.179 0.83,-10 1.84,-14.46 1,-4.469 2.41,-8.61 4.21,-12.418 1.79,-3.813 4.35,-7.383 7.66,-10.692 4.46,-4.601 9.97,-8.199 16.52,-10.789 6.55,-2.59 13.85,-3.891 21.91,-3.891 7.34,0 13.71,1.192 19.11,3.571 5.4,2.371 10.4,6.148 15,11.328 l 4.97,-12.738 h 15.54 v 85.5 h -53.75 v -26.993 h 18.35 v -6.039 c 0,-8.211 -1.41,-14.25 -4.21,-18.14 -2.81,-3.891 -7.45,-5.828 -13.93,-5.828 -4.32,0 -7.7,0.679 -10.15,2.05 -2.45,1.368 -4.24,3.418 -5.39,6.149 -1.16,2.738 -1.88,6.16 -2.16,10.262 -0.29,4.097 -0.43,8.808 -0.43,14.136 V 498 c 0,5.32 0.14,10.039 0.43,14.141 0.28,4.097 1,7.519 2.16,10.257 1.15,2.731 2.94,4.782 5.39,6.153 2.45,1.371 5.83,2.051 10.15,2.051 11.23,0 17.27,-5.973 18.14,-17.922 h 35.4 c -0.72,15.261 -5.82,27.172 -15.32,35.73 -9.5,8.57 -22.24,12.852 -38.22,12.852 -16.98,0 -30.15,-4.891 -39.51,-14.684 -3.31,-3.308 -5.87,-6.879 -7.66,-10.687 -1.8,-3.809 -3.21,-7.95 -4.21,-12.411 -1.01,-4.468 -1.62,-9.289 -1.84,-14.468 -0.21,-5.184 -0.32,-10.793 -0.32,-16.84 V 464.32 Z m 182.86,92.84 h -34.97 V 450.5 c 0,-18.559 4.6,-32.379 13.81,-41.449 9.21,-9.071 23.46,-13.602 42.75,-13.602 19.29,0 33.54,4.5 42.75,13.492 9.21,9 13.82,22.848 13.82,41.559 v 106.66 h -34.98 v -98.449 c 0,-5.621 -0.25,-10.473 -0.75,-14.582 -0.51,-4.098 -1.55,-7.481 -3.14,-10.141 -1.58,-2.668 -3.77,-4.636 -6.58,-5.937 -2.81,-1.301 -6.51,-1.942 -11.12,-1.942 -4.61,0 -8.31,0.61 -11.12,1.832 -2.8,1.219 -4.96,3.168 -6.47,5.829 -1.52,2.66 -2.56,6.05 -3.14,10.152 -0.57,4.098 -0.86,9.027 -0.86,14.789 z m 120.68,-157.832 h 110.98 v 30.66 h -76 v 37.793 h 48.79 v 30.649 h -48.79 v 28.07 h 71.46 v 30.66 H 1796.47 V 399.328"
         style="fill:#8cd024;fill-opacity:1;fill-rule:nonzero;stroke:none"
         id="path12" /><path
         d="m 1196.93,1712.42 v 121.64 h 40.6 v -283.79 h -40.6 v 121.63 h -85.09 v -121.63 h -40.54 v 283.79 h 40.54 v -121.64 h 85.09"
         style="fill:#231f20;fill-opacity:1;fill-rule:nonzero;stroke:none"
         id="path14" /><path
         d="m 1464.97,1834.06 v -40.51 h -109.5 v -81.13 h 85.15 v -40.52 h -85.15 v -81.13 h 109.5 v -40.59 h -150.08 v 283.88 h 150.08"
         style="fill:#231f20;fill-opacity:1;fill-rule:nonzero;stroke:none"
         id="path16" /><path
         d="m 1566.7,1550.27 h -40.53 v 283.79 h 40.53 v -283.79"
         style="fill:#231f20;fill-opacity:1;fill-rule:nonzero;stroke:none"
         id="path18" /><path
         d="m 1818.54,1834.06 v -283.88 h -32.4 l -105.48,186.55 v -186.55 h -40.53 v 283.88 h 32.47 l 105.36,-186.53 v 186.53 h 40.58"
         style="fill:#231f20;fill-opacity:1;fill-rule:nonzero;stroke:none"
         id="path20" /><path
         d="m 1977.03,1834.06 c 44.66,0 81.06,-36.47 81.06,-81.1 0,-44.6 -33.99,-70.55 -56.71,-77 l 64.89,-125.78 h -45.86 l -60.76,121.72 h -27.25 v -121.72 h -40.54 v 283.88 z m -44.63,-40.51 v -81.13 h 45.03 c 22.3,0 40.06,18.26 40.06,40.54 0,22.31 -17.76,40.59 -40.06,40.59 h -45.03"
         style="fill:#231f20;fill-opacity:1;fill-rule:nonzero;stroke:none"
         id="path22" /><path
         d="m 2168,1550.27 h -40.53 v 283.79 H 2168 v -283.79"
         style="fill:#231f20;fill-opacity:1;fill-rule:nonzero;stroke:none"
         id="path24" /><path
         d="m 2237.32,1757.01 c 0,44.64 36.91,81.12 81.51,81.12 44.58,0 81.13,-36.48 81.13,-81.12 v -16.18 h -40.63 v 16.18 c 0,22.3 -18.22,40.58 -40.5,40.58 -22.32,0 -40.91,-18.28 -40.91,-40.58 v -129.76 c 0,-22.32 18.59,-40.98 40.91,-40.98 22.28,0 40.5,18.66 40.5,40.98 v 16.2 h 40.63 v -16.2 c 0,-44.62 -36.55,-81.05 -81.13,-81.05 -44.6,0 -81.51,36.43 -81.51,81.05 v 129.76"
         style="fill:#231f20;fill-opacity:1;fill-rule:nonzero;stroke:none"
         id="path26" /><path
         d="m 2586.87,1712.42 v 121.64 h 40.52 v -283.79 h -40.52 v 121.63 h -85.19 v -121.63 h -40.58 v 283.79 h 40.58 v -121.64 h 85.19"
         style="fill:#231f20;fill-opacity:1;fill-rule:nonzero;stroke:none"
         id="path28" /><path
         d="m 1148.33,1408.5 c 44.6,0 81.05,-36.46 81.05,-81.14 0,-36.53 -19.83,-52.68 -21.84,-55.56 2.01,-1.19 34.42,-21.05 34.42,-65.71 0,-44.52 -36.92,-81.42 -81.5,-81.42 h -89.24 v 283.83 z m -36.49,-40.54 v -81.13 h 36.49 c 20.23,0 40.54,16.19 40.54,40.53 0,24.35 -20.31,40.6 -40.54,40.6 z m 0,-121.65 v -81.13 h 48.62 c 24.31,0 40.99,16.68 40.99,40.91 0,24.37 -16.68,40.22 -40.99,40.22 h -48.62"
         style="fill:#231f20;fill-opacity:1;fill-rule:nonzero;stroke:none"
         id="path30" /><path
         d="m 1371.26,1412.54 c 49.05,0 89.25,-40.14 89.25,-89.26 v -113.5 c 0,-49.02 -40.2,-89.2 -89.25,-89.2 -48.99,0 -89.22,40.18 -89.22,89.2 v 113.5 c 0,49.12 40.23,89.26 89.22,89.26 m -44.58,60.84 c 13.47,0 24.35,-10.98 24.35,-24.37 0,-13.31 -10.88,-24.27 -24.35,-24.27 -13.37,0 -24.34,10.96 -24.34,24.27 0,13.39 10.97,24.37 24.34,24.37 m 44.58,-312.24 c 26.85,0 48.74,21.89 48.74,48.64 v 113.5 c 0,26.82 -21.89,48.76 -48.74,48.76 -26.73,0 -48.62,-21.94 -48.62,-48.76 v -113.5 c 0,-26.75 21.89,-48.64 48.62,-48.64 m 40.54,312.24 c 13.46,0 24.36,-10.98 24.36,-24.37 0,-13.31 -10.9,-24.27 -24.36,-24.27 -13.31,0 -24.29,10.96 -24.29,24.27 0,13.39 10.98,24.37 24.29,24.37"
         style="fill:#231f20;fill-opacity:1;fill-rule:nonzero;stroke:none"
         id="path32" /><path
         d="m 1557.81,1408.5 v -243.32 h 109.45 v -40.51 H 1517.3 v 283.83 h 40.51"
         style="fill:#231f20;fill-opacity:1;fill-rule:nonzero;stroke:none"
         id="path34" /><path
         d="m 1756.45,1408.5 v -243.32 h 109.46 v -40.51 h -150 v 283.83 h 40.54"
         style="fill:#231f20;fill-opacity:1;fill-rule:nonzero;stroke:none"
         id="path36" /><path
         d="m 1148.33,986.969 c 48.6,0 77.01,-40.52 81.05,-48.637 l -35.62,-18.633 c -2.09,4.039 -17.06,26.75 -45.43,26.75 -28.41,0 -44.64,-14.187 -44.64,-32.469 0,-18.281 12.19,-32.429 40.15,-45.41 l 39.41,-19.5 c 25.47,-12.929 50.22,-36.429 50.22,-76.961 0,-40.539 -36.14,-77.05 -85.14,-77.05 -49.09,0 -79.93,39.679 -93.28,68.921 l 33.68,19.84 c 13.37,-27.511 31.19,-48.191 59.6,-48.191 28.37,0 44.6,18.199 44.6,36.48 0,18.172 -11.36,32.012 -36.97,44.973 l -39.23,19.398 c -28,12.989 -53.57,36.961 -53.57,77.5 0,42.551 36.47,72.989 85.17,72.989"
         style="fill:#231f20;fill-opacity:1;fill-rule:nonzero;stroke:none"
         id="path38" /><path
         d="m 1436.16,982.93 v -40.539 h -68.94 V 699.078 h -40.54 v 243.313 h -68.92 v 40.539 h 178.4"
         style="fill:#231f20;fill-opacity:1;fill-rule:nonzero;stroke:none"
         id="path40" /><path
         d="m 1525.34,699.078 h -40.52 V 982.93 h 40.52 V 699.078"
         style="fill:#231f20;fill-opacity:1;fill-rule:nonzero;stroke:none"
         id="path42" /><path
         d="m 1740.29,982.93 v -40.539 h -109.53 v -81.11 h 85.15 V 820.73 h -85.15 V 699.078 h -40.54 V 982.93 h 150.07"
         style="fill:#231f20;fill-opacity:1;fill-rule:nonzero;stroke:none"
         id="path44" /><path
         d="M 1947.05,982.93 V 942.391 H 1878.1 V 699.078 h -40.59 v 243.313 h -68.87 v 40.539 h 178.41"
         style="fill:#231f20;fill-opacity:1;fill-rule:nonzero;stroke:none"
         id="path46" /><path
         d="M 2170.05,982.93 V 784.211 c 0,-49.031 -40.16,-89.152 -89.25,-89.152 -49.01,0 -89.15,40.121 -89.15,89.152 V 982.93 h 40.57 V 784.211 c 0,-26.723 21.83,-48.582 48.58,-48.582 26.77,0 48.72,21.859 48.72,48.582 V 982.93 h 40.53"
         style="fill:#231f20;fill-opacity:1;fill-rule:nonzero;stroke:none"
         id="path48" /><path
         d="M 2401.15,982.93 V 699.078 h -32.4 l -105.5,186.551 V 699.078 h -40.54 V 982.93 h 32.46 L 2360.63,796.391 V 982.93 h 40.52"
         style="fill:#231f20;fill-opacity:1;fill-rule:nonzero;stroke:none"
         id="path50" /><path
         d="m 2453.84,897.762 c 0,49.066 40.11,89.207 89.18,89.207 49.11,0 89.17,-40.141 89.17,-89.207 v -8.153 h -40.51 v 8.153 c 0,26.726 -21.89,48.687 -48.66,48.687 -26.76,0 -48.64,-21.961 -48.64,-48.687 V 784.211 c 0,-26.723 21.88,-48.582 48.64,-48.582 26.77,0 48.66,21.859 48.66,48.582 v 36.519 h -52.7 v 40.551 h 93.21 v -77.07 c 0,-49.031 -40.06,-89.152 -89.17,-89.152 -49.07,0 -89.18,40.121 -89.18,89.152 v 113.551"
         style="fill:#231f20;fill-opacity:1;fill-rule:nonzero;stroke:none"
         id="path52" /><path
         d="m 698.184,1546 h 166.109 v 301.12 H 698.184 V 1546"
         style="fill:#afdd5d;fill-opacity:1;fill-rule:nonzero;stroke:none"
         id="path54" /><path
         d="m 491.539,1546 h 166.109 v 301.12 H 491.539 V 1546"
         style="fill:#8cd024;fill-opacity:1;fill-rule:nonzero;stroke:none"
         id="path56" /><path
         d="m 284.895,1546 h 166.109 v 301.12 H 284.895 V 1546"
         style="fill:#d7eea8;fill-opacity:1;fill-rule:nonzero;stroke:none"
         id="path58" /></g></g></svg>
